<svg width="42" height="42" viewBox="0 0 42 42" fill="none" xmlns="http://www.w3.org/2000/svg">
<circle cx="21" cy="21" r="20.5" fill="#C4CDD5" fill-opacity="0.1" stroke="#8C97AC"/>
<path d="M23.4733 21.4733C24.1269 20.9591 24.604 20.2539 24.8382 19.4559C25.0723 18.658 25.0519 17.8068 24.7799 17.021C24.5078 16.2351 23.9975 15.5536 23.32 15.0712C22.6426 14.5889 21.8316 14.3297 21 14.3297C20.1684 14.3297 19.3574 14.5889 18.68 15.0712C18.0025 15.5536 17.4922 16.2351 17.2201 17.021C16.9481 17.8068 16.9277 18.658 17.1618 19.4559C17.396 20.2539 17.8731 20.9591 18.5267 21.4733C17.4067 21.922 16.4295 22.6662 15.6993 23.6266C14.969 24.587 14.513 25.7275 14.38 26.9266C14.3704 27.0142 14.3781 27.1028 14.4027 27.1874C14.4273 27.2719 14.4683 27.3508 14.5234 27.4195C14.6347 27.5583 14.7965 27.6472 14.9733 27.6666C15.1501 27.6861 15.3274 27.6345 15.4662 27.5232C15.605 27.412 15.6939 27.2501 15.7133 27.0733C15.8597 25.7701 16.4811 24.5665 17.4588 23.6925C18.4365 22.8185 19.7019 22.3353 21.0133 22.3353C22.3247 22.3353 23.5902 22.8185 24.5679 23.6925C25.5455 24.5665 26.1669 25.7701 26.3133 27.0733C26.3315 27.2371 26.4096 27.3884 26.5327 27.498C26.6558 27.6076 26.8152 27.6676 26.98 27.6666H27.0533C27.2281 27.6465 27.3878 27.5582 27.4977 27.4208C27.6076 27.2835 27.6587 27.1082 27.64 26.9333C27.5063 25.7308 27.0479 24.5873 26.3139 23.6254C25.5799 22.6636 24.5979 21.9196 23.4733 21.4733ZM21 21C20.4726 21 19.957 20.8436 19.5185 20.5506C19.0799 20.2575 18.7382 19.8411 18.5363 19.3538C18.3345 18.8665 18.2817 18.3304 18.3846 17.8131C18.4875 17.2958 18.7414 16.8206 19.1144 16.4477C19.4873 16.0748 19.9625 15.8208 20.4798 15.7179C20.997 15.615 21.5332 15.6678 22.0205 15.8696C22.5078 16.0715 22.9242 16.4133 23.2172 16.8518C23.5103 17.2903 23.6667 17.8059 23.6667 18.3333C23.6667 19.0406 23.3857 19.7188 22.8856 20.2189C22.3855 20.719 21.7072 21 21 21Z" fill="#60667D"/>
</svg>
